<?xml version="1.0" encoding="UTF-8" standalone="no"?>
<!DOCTYPE svg PUBLIC "-//W3C//DTD SVG 1.1//EN"
 "http://www.w3.org/Graphics/SVG/1.1/DTD/svg11.dtd">
<!-- Generated by graphviz version 2.47.0 (20210316.0004)
 -->
<!-- Title: dependencies Pages: 1 -->
<svg width="1554pt" height="284pt"
 viewBox="0.00 0.00 1554.00 284.00" xmlns="http://www.w3.org/2000/svg" xmlns:xlink="http://www.w3.org/1999/xlink">
<g id="graph0" class="graph" transform="scale(1 1) rotate(0) translate(4 280)">
<title>dependencies</title>
<polygon fill="white" stroke="transparent" points="-4,4 -4,-280 1550,-280 1550,4 -4,4"/>
<text text-anchor="start" x="752.01" y="-42.4" font-family="Times-12" font-weight="bold" font-size="14.00">Legend</text>
<polygon fill="#ffffb3" stroke="transparent" points="539,-10 539,-30 559,-30 559,-10 539,-10"/>
<text text-anchor="start" x="562.63" y="-15.4" font-family="Times-12" font-size="14.00"> &#160;Declarations</text>
<polygon fill="#8dd3c7" stroke="transparent" points="652,-10 652,-30 672,-30 672,-10 652,-10"/>
<text text-anchor="start" x="675.73" y="-15.4" font-family="Times-12" font-size="14.00"> &#160;Module</text>
<polygon fill="#80b1d3" stroke="transparent" points="738,-10 738,-30 758,-30 758,-10 738,-10"/>
<text text-anchor="start" x="761.78" y="-15.4" font-family="Times-12" font-size="14.00"> &#160;Bootstrap</text>
<polygon fill="#fdb462" stroke="transparent" points="835,-10 835,-30 855,-30 855,-10 835,-10"/>
<text text-anchor="start" x="858.67" y="-15.4" font-family="Times-12" font-size="14.00"> &#160;Providers</text>
<polygon fill="#fb8072" stroke="transparent" points="931,-10 931,-30 951,-30 951,-10 931,-10"/>
<text text-anchor="start" x="954.73" y="-15.4" font-family="Times-12" font-size="14.00"> &#160;Exports</text>
<g id="clust1" class="cluster">
<title>cluster_AppModule</title>
<polygon fill="none" stroke="black" stroke-dasharray="1,5" points="8,-70 8,-268 1538,-268 1538,-70 8,-70"/>
</g>
<g id="clust15" class="cluster">
<title>cluster_AppModule_bootstrap</title>
<polygon fill="none" stroke="black" points="773,-208 773,-260 897,-260 897,-208 773,-208"/>
</g>
<g id="clust13" class="cluster">
<title>cluster_AppModule_imports</title>
<polygon fill="none" stroke="black" points="1386,-78 1386,-130 1530,-130 1530,-78 1386,-78"/>
</g>
<g id="clust2" class="cluster">
<title>cluster_AppModule_declarations</title>
<polygon fill="none" stroke="black" points="16,-78 16,-130 1378,-130 1378,-78 16,-78"/>
</g>
<!-- AppComponent -->
<g id="node1" class="node">
<title>AppComponent</title>
<polygon fill="#ffffb3" stroke="black" points="1369.94,-122 1264.06,-122 1264.06,-86 1369.94,-86 1369.94,-122"/>
<text text-anchor="middle" x="1317" y="-99.8" font-family="Times,serif" font-size="14.00">AppComponent</text>
</g>
<!-- AppModule -->
<g id="node11" class="node">
<title>AppModule</title>
<polygon fill="#8dd3c7" stroke="black" points="876.66,-187 873.66,-191 852.66,-191 849.66,-187 793.34,-187 793.34,-151 876.66,-151 876.66,-187"/>
<text text-anchor="middle" x="835" y="-164.8" font-family="Times,serif" font-size="14.00">AppModule</text>
</g>
<!-- AppComponent&#45;&gt;AppModule -->
<g id="edge1" class="edge">
<title>AppComponent&#45;&gt;AppModule</title>
<path fill="none" stroke="black" d="M1317,-122.28C1317,-143.32 1317,-175 1317,-175 1317,-175 886.93,-175 886.93,-175"/>
<polygon fill="black" stroke="black" points="886.93,-171.5 876.93,-175 886.93,-178.5 886.93,-171.5"/>
</g>
<!-- CardComponent -->
<g id="node2" class="node">
<title>CardComponent</title>
<polygon fill="#ffffb3" stroke="black" points="1246.05,-122 1137.95,-122 1137.95,-86 1246.05,-86 1246.05,-122"/>
<text text-anchor="middle" x="1192" y="-99.8" font-family="Times,serif" font-size="14.00">CardComponent</text>
</g>
<!-- CardComponent&#45;&gt;AppModule -->
<g id="edge2" class="edge">
<title>CardComponent&#45;&gt;AppModule</title>
<path fill="none" stroke="black" d="M1192,-122.11C1192,-141.34 1192,-169 1192,-169 1192,-169 887,-169 887,-169"/>
<polygon fill="black" stroke="black" points="887,-165.5 877,-169 887,-172.5 887,-165.5"/>
</g>
<!-- ChartsComponent -->
<g id="node3" class="node">
<title>ChartsComponent</title>
<polygon fill="#ffffb3" stroke="black" points="1119.88,-122 1002.12,-122 1002.12,-86 1119.88,-86 1119.88,-122"/>
<text text-anchor="middle" x="1061" y="-99.8" font-family="Times,serif" font-size="14.00">ChartsComponent</text>
</g>
<!-- ChartsComponent&#45;&gt;AppModule -->
<g id="edge3" class="edge">
<title>ChartsComponent&#45;&gt;AppModule</title>
<path fill="none" stroke="black" d="M1061,-122.02C1061,-139.37 1061,-163 1061,-163 1061,-163 886.72,-163 886.72,-163"/>
<polygon fill="black" stroke="black" points="886.72,-159.5 876.72,-163 886.72,-166.5 886.72,-159.5"/>
</g>
<!-- FilterPipe -->
<g id="node4" class="node">
<title>FilterPipe</title>
<polygon fill="#ffffb3" stroke="black" points="983.72,-122 912.28,-122 912.28,-86 983.72,-86 983.72,-122"/>
<text text-anchor="middle" x="948" y="-99.8" font-family="Times,serif" font-size="14.00">FilterPipe</text>
</g>
<!-- FilterPipe&#45;&gt;AppModule -->
<g id="edge4" class="edge">
<title>FilterPipe&#45;&gt;AppModule</title>
<path fill="none" stroke="black" d="M948,-122.24C948,-137.57 948,-157 948,-157 948,-157 886.76,-157 886.76,-157"/>
<polygon fill="black" stroke="black" points="886.76,-153.5 876.76,-157 886.76,-160.5 886.76,-153.5"/>
</g>
<!-- FooterComponent -->
<g id="node5" class="node">
<title>FooterComponent</title>
<polygon fill="#ffffb3" stroke="black" points="893.88,-122 776.12,-122 776.12,-86 893.88,-86 893.88,-122"/>
<text text-anchor="middle" x="835" y="-99.8" font-family="Times,serif" font-size="14.00">FooterComponent</text>
</g>
<!-- FooterComponent&#45;&gt;AppModule -->
<g id="edge5" class="edge">
<title>FooterComponent&#45;&gt;AppModule</title>
<path fill="none" stroke="black" d="M835,-122.11C835,-122.11 835,-140.99 835,-140.99"/>
<polygon fill="black" stroke="black" points="831.5,-140.99 835,-150.99 838.5,-140.99 831.5,-140.99"/>
</g>
<!-- HeaderComponent -->
<g id="node6" class="node">
<title>HeaderComponent</title>
<polygon fill="#ffffb3" stroke="black" points="757.74,-122 636.26,-122 636.26,-86 757.74,-86 757.74,-122"/>
<text text-anchor="middle" x="697" y="-99.8" font-family="Times,serif" font-size="14.00">HeaderComponent</text>
</g>
<!-- HeaderComponent&#45;&gt;AppModule -->
<g id="edge6" class="edge">
<title>HeaderComponent&#45;&gt;AppModule</title>
<path fill="none" stroke="black" d="M697,-122.24C697,-137.57 697,-157 697,-157 697,-157 783.22,-157 783.22,-157"/>
<polygon fill="black" stroke="black" points="783.22,-160.5 793.22,-157 783.22,-153.5 783.22,-160.5"/>
</g>
<!-- NavbarComponent -->
<g id="node7" class="node">
<title>NavbarComponent</title>
<polygon fill="#ffffb3" stroke="black" points="618.03,-122 495.97,-122 495.97,-86 618.03,-86 618.03,-122"/>
<text text-anchor="middle" x="557" y="-99.8" font-family="Times,serif" font-size="14.00">NavbarComponent</text>
</g>
<!-- NavbarComponent&#45;&gt;AppModule -->
<g id="edge7" class="edge">
<title>NavbarComponent&#45;&gt;AppModule</title>
<path fill="none" stroke="black" d="M557,-122.02C557,-139.37 557,-163 557,-163 557,-163 783.08,-163 783.08,-163"/>
<polygon fill="black" stroke="black" points="783.08,-166.5 793.08,-163 783.08,-159.5 783.08,-166.5"/>
</g>
<!-- NotFoundComponent -->
<g id="node8" class="node">
<title>NotFoundComponent</title>
<polygon fill="#ffffb3" stroke="black" points="478.11,-122 339.89,-122 339.89,-86 478.11,-86 478.11,-122"/>
<text text-anchor="middle" x="409" y="-99.8" font-family="Times,serif" font-size="14.00">NotFoundComponent</text>
</g>
<!-- NotFoundComponent&#45;&gt;AppModule -->
<g id="edge8" class="edge">
<title>NotFoundComponent&#45;&gt;AppModule</title>
<path fill="none" stroke="black" d="M409,-122.11C409,-141.34 409,-169 409,-169 409,-169 782.99,-169 782.99,-169"/>
<polygon fill="black" stroke="black" points="782.99,-172.5 792.99,-169 782.99,-165.5 782.99,-172.5"/>
</g>
<!-- TableComponent -->
<g id="node9" class="node">
<title>TableComponent</title>
<polygon fill="#ffffb3" stroke="black" points="321.7,-122 208.3,-122 208.3,-86 321.7,-86 321.7,-122"/>
<text text-anchor="middle" x="265" y="-99.8" font-family="Times,serif" font-size="14.00">TableComponent</text>
</g>
<!-- TableComponent&#45;&gt;AppModule -->
<g id="edge9" class="edge">
<title>TableComponent&#45;&gt;AppModule</title>
<path fill="none" stroke="black" d="M265,-122.28C265,-143.32 265,-175 265,-175 265,-175 783.09,-175 783.09,-175"/>
<polygon fill="black" stroke="black" points="783.09,-178.5 793.09,-175 783.09,-171.5 783.09,-178.5"/>
</g>
<!-- TicketTitleEditComponent -->
<g id="node10" class="node">
<title>TicketTitleEditComponent</title>
<polygon fill="#ffffb3" stroke="black" points="190.37,-122 23.63,-122 23.63,-86 190.37,-86 190.37,-122"/>
<text text-anchor="middle" x="107" y="-99.8" font-family="Times,serif" font-size="14.00">TicketTitleEditComponent</text>
</g>
<!-- TicketTitleEditComponent&#45;&gt;AppModule -->
<g id="edge10" class="edge">
<title>TicketTitleEditComponent&#45;&gt;AppModule</title>
<path fill="none" stroke="black" d="M107,-122.25C107,-145.02 107,-181 107,-181 107,-181 783.24,-181 783.24,-181"/>
<polygon fill="black" stroke="black" points="783.24,-184.5 793.24,-181 783.24,-177.5 783.24,-184.5"/>
</g>
<!-- AppComponent  -->
<g id="node13" class="node">
<title>AppComponent </title>
<polygon fill="#80b1d3" stroke="black" points="889.44,-252 780.56,-252 780.56,-216 889.44,-216 889.44,-252"/>
<text text-anchor="middle" x="835" y="-229.8" font-family="Times,serif" font-size="14.00">AppComponent </text>
</g>
<!-- AppModule&#45;&gt;AppComponent  -->
<g id="edge12" class="edge">
<title>AppModule&#45;&gt;AppComponent </title>
<path fill="none" stroke="black" stroke-dasharray="1,5" d="M835,-187.11C835,-187.11 835,-205.99 835,-205.99"/>
<polygon fill="black" stroke="black" points="831.5,-205.99 835,-215.99 838.5,-205.99 831.5,-205.99"/>
</g>
<!-- AppRoutingModule -->
<g id="node12" class="node">
<title>AppRoutingModule</title>
<polygon fill="#8dd3c7" stroke="black" points="1522.27,-122 1519.27,-126 1498.27,-126 1495.27,-122 1393.73,-122 1393.73,-86 1522.27,-86 1522.27,-122"/>
<text text-anchor="middle" x="1458" y="-99.8" font-family="Times,serif" font-size="14.00">AppRoutingModule</text>
</g>
<!-- AppRoutingModule&#45;&gt;AppModule -->
<g id="edge11" class="edge">
<title>AppRoutingModule&#45;&gt;AppModule</title>
<path fill="none" stroke="black" d="M1458,-122.25C1458,-145.02 1458,-181 1458,-181 1458,-181 886.84,-181 886.84,-181"/>
<polygon fill="black" stroke="black" points="886.84,-177.5 876.84,-181 886.84,-184.5 886.84,-177.5"/>
</g>
</g>
</svg>
