<?xml version="1.0" encoding="UTF-8" standalone="no"?>
<!DOCTYPE svg PUBLIC "-//W3C//DTD SVG 1.1//EN"
 "http://www.w3.org/Graphics/SVG/1.1/DTD/svg11.dtd">
<!-- Generated by graphviz version 2.47.0 (20210316.0004)
 -->
<!-- Title: dependencies Pages: 1 -->
<svg width="1554pt" height="284pt"
 viewBox="0.00 0.00 1554.00 284.00" xmlns="http://www.w3.org/2000/svg" xmlns:xlink="http://www.w3.org/1999/xlink">
<g id="graph0" class="graph" transform="scale(1 1) rotate(0) translate(4 280)">
<title>dependencies</title>
<polygon fill="white" stroke="transparent" points="-4,4 -4,-280 1550,-280 1550,4 -4,4"/>
<text text-anchor="start" x="752.01" y="-42.4" font-family="Times-12" font-weight="bold" font-size="14.00">Legend</text>
<polygon fill="#ffffb3" stroke="transparent" points="539,-10 539,-30 559,-30 559,-10 539,-10"/>
<text text-anchor="start" x="562.63" y="-15.4" font-family="Times-12" font-size="14.00"> &#160;Declarations</text>
<polygon fill="#8dd3c7" stroke="transparent" points="652,-10 652,-30 672,-30 672,-10 652,-10"/>
<text text-anchor="start" x="675.73" y="-15.4" font-family="Times-12" font-size="14.00"> &#160;Module</text>
<polygon fill="#80b1d3" stroke="transparent" points="738,-10 738,-30 758,-30 758,-10 738,-10"/>
<text text-anchor="start" x="761.78" y="-15.4" font-family="Times-12" font-size="14.00"> &#160;Bootstrap</text>
<polygon fill="#fdb462" stroke="transparent" points="835,-10 835,-30 855,-30 855,-10 835,-10"/>
<text text-anchor="start" x="858.67" y="-15.4" font-family="Times-12" font-size="14.00"> &#160;Providers</text>
<polygon fill="#fb8072" stroke="transparent" points="931,-10 931,-30 951,-30 951,-10 931,-10"/>
<text text-anchor="start" x="954.73" y="-15.4" font-family="Times-12" font-size="14.00"> &#160;Exports</text>
<g id="clust1" class="cluster">
<title>cluster_AppModule</title>
<polygon fill="none" stroke="black" stroke-dasharray="1,5" points="8,-70 8,-268 1538,-268 1538,-70 8,-70"/>
</g>
<g id="clust2" class="cluster">
<title>cluster_AppModule_declarations</title>
<polygon fill="none" stroke="black" points="168,-78 168,-130 1530,-130 1530,-78 168,-78"/>
</g>
<g id="clust13" class="cluster">
<title>cluster_AppModule_imports</title>
<polygon fill="none" stroke="black" points="16,-78 16,-130 160,-130 160,-78 16,-78"/>
</g>
<g id="clust15" class="cluster">
<title>cluster_AppModule_bootstrap</title>
<polygon fill="none" stroke="black" points="787,-208 787,-260 911,-260 911,-208 787,-208"/>
</g>
<!-- AppComponent -->
<g id="node1" class="node">
<title>AppComponent</title>
<polygon fill="#ffffb3" stroke="black" points="1521.94,-122 1416.06,-122 1416.06,-86 1521.94,-86 1521.94,-122"/>
<text text-anchor="middle" x="1469" y="-99.8" font-family="Times,serif" font-size="14.00">AppComponent</text>
</g>
<!-- AppModule -->
<g id="node11" class="node">
<title>AppModule</title>
<polygon fill="#8dd3c7" stroke="black" points="890.66,-187 887.66,-191 866.66,-191 863.66,-187 807.34,-187 807.34,-151 890.66,-151 890.66,-187"/>
<text text-anchor="middle" x="849" y="-164.8" font-family="Times,serif" font-size="14.00">AppModule</text>
</g>
<!-- AppComponent&#45;&gt;AppModule -->
<g id="edge1" class="edge">
<title>AppComponent&#45;&gt;AppModule</title>
<path fill="none" stroke="black" d="M1469,-122.25C1469,-145.02 1469,-181 1469,-181 1469,-181 901.13,-181 901.13,-181"/>
<polygon fill="black" stroke="black" points="901.13,-177.5 891.13,-181 901.13,-184.5 901.13,-177.5"/>
</g>
<!-- CardComponent -->
<g id="node2" class="node">
<title>CardComponent</title>
<polygon fill="#ffffb3" stroke="black" points="1398.05,-122 1289.95,-122 1289.95,-86 1398.05,-86 1398.05,-122"/>
<text text-anchor="middle" x="1344" y="-99.8" font-family="Times,serif" font-size="14.00">CardComponent</text>
</g>
<!-- CardComponent&#45;&gt;AppModule -->
<g id="edge2" class="edge">
<title>CardComponent&#45;&gt;AppModule</title>
<path fill="none" stroke="black" d="M1344,-122.28C1344,-143.32 1344,-175 1344,-175 1344,-175 900.78,-175 900.78,-175"/>
<polygon fill="black" stroke="black" points="900.78,-171.5 890.78,-175 900.78,-178.5 900.78,-171.5"/>
</g>
<!-- ChartsComponent -->
<g id="node3" class="node">
<title>ChartsComponent</title>
<polygon fill="#ffffb3" stroke="black" points="1271.88,-122 1154.12,-122 1154.12,-86 1271.88,-86 1271.88,-122"/>
<text text-anchor="middle" x="1213" y="-99.8" font-family="Times,serif" font-size="14.00">ChartsComponent</text>
</g>
<!-- ChartsComponent&#45;&gt;AppModule -->
<g id="edge3" class="edge">
<title>ChartsComponent&#45;&gt;AppModule</title>
<path fill="none" stroke="black" d="M1213,-122.11C1213,-141.34 1213,-169 1213,-169 1213,-169 900.76,-169 900.76,-169"/>
<polygon fill="black" stroke="black" points="900.76,-165.5 890.76,-169 900.76,-172.5 900.76,-165.5"/>
</g>
<!-- FilterPipe -->
<g id="node4" class="node">
<title>FilterPipe</title>
<polygon fill="#ffffb3" stroke="black" points="1135.72,-122 1064.28,-122 1064.28,-86 1135.72,-86 1135.72,-122"/>
<text text-anchor="middle" x="1100" y="-99.8" font-family="Times,serif" font-size="14.00">FilterPipe</text>
</g>
<!-- FilterPipe&#45;&gt;AppModule -->
<g id="edge4" class="edge">
<title>FilterPipe&#45;&gt;AppModule</title>
<path fill="none" stroke="black" d="M1100,-122.02C1100,-139.37 1100,-163 1100,-163 1100,-163 900.73,-163 900.73,-163"/>
<polygon fill="black" stroke="black" points="900.73,-159.5 890.73,-163 900.73,-166.5 900.73,-159.5"/>
</g>
<!-- FooterComponent -->
<g id="node5" class="node">
<title>FooterComponent</title>
<polygon fill="#ffffb3" stroke="black" points="1045.88,-122 928.12,-122 928.12,-86 1045.88,-86 1045.88,-122"/>
<text text-anchor="middle" x="987" y="-99.8" font-family="Times,serif" font-size="14.00">FooterComponent</text>
</g>
<!-- FooterComponent&#45;&gt;AppModule -->
<g id="edge5" class="edge">
<title>FooterComponent&#45;&gt;AppModule</title>
<path fill="none" stroke="black" d="M987,-122.24C987,-137.57 987,-157 987,-157 987,-157 900.78,-157 900.78,-157"/>
<polygon fill="black" stroke="black" points="900.78,-153.5 890.78,-157 900.78,-160.5 900.78,-153.5"/>
</g>
<!-- HeaderComponent -->
<g id="node6" class="node">
<title>HeaderComponent</title>
<polygon fill="#ffffb3" stroke="black" points="909.74,-122 788.26,-122 788.26,-86 909.74,-86 909.74,-122"/>
<text text-anchor="middle" x="849" y="-99.8" font-family="Times,serif" font-size="14.00">HeaderComponent</text>
</g>
<!-- HeaderComponent&#45;&gt;AppModule -->
<g id="edge6" class="edge">
<title>HeaderComponent&#45;&gt;AppModule</title>
<path fill="none" stroke="black" d="M849,-122.11C849,-122.11 849,-140.99 849,-140.99"/>
<polygon fill="black" stroke="black" points="845.5,-140.99 849,-150.99 852.5,-140.99 845.5,-140.99"/>
</g>
<!-- NavbarComponent -->
<g id="node7" class="node">
<title>NavbarComponent</title>
<polygon fill="#ffffb3" stroke="black" points="770.03,-122 647.97,-122 647.97,-86 770.03,-86 770.03,-122"/>
<text text-anchor="middle" x="709" y="-99.8" font-family="Times,serif" font-size="14.00">NavbarComponent</text>
</g>
<!-- NavbarComponent&#45;&gt;AppModule -->
<g id="edge7" class="edge">
<title>NavbarComponent&#45;&gt;AppModule</title>
<path fill="none" stroke="black" d="M709,-122.24C709,-137.57 709,-157 709,-157 709,-157 797,-157 797,-157"/>
<polygon fill="black" stroke="black" points="797,-160.5 807,-157 797,-153.5 797,-160.5"/>
</g>
<!-- NotFoundComponent -->
<g id="node8" class="node">
<title>NotFoundComponent</title>
<polygon fill="#ffffb3" stroke="black" points="630.11,-122 491.89,-122 491.89,-86 630.11,-86 630.11,-122"/>
<text text-anchor="middle" x="561" y="-99.8" font-family="Times,serif" font-size="14.00">NotFoundComponent</text>
</g>
<!-- NotFoundComponent&#45;&gt;AppModule -->
<g id="edge8" class="edge">
<title>NotFoundComponent&#45;&gt;AppModule</title>
<path fill="none" stroke="black" d="M561,-122.02C561,-139.37 561,-163 561,-163 561,-163 797.12,-163 797.12,-163"/>
<polygon fill="black" stroke="black" points="797.12,-166.5 807.12,-163 797.12,-159.5 797.12,-166.5"/>
</g>
<!-- TableComponent -->
<g id="node9" class="node">
<title>TableComponent</title>
<polygon fill="#ffffb3" stroke="black" points="473.7,-122 360.3,-122 360.3,-86 473.7,-86 473.7,-122"/>
<text text-anchor="middle" x="417" y="-99.8" font-family="Times,serif" font-size="14.00">TableComponent</text>
</g>
<!-- TableComponent&#45;&gt;AppModule -->
<g id="edge9" class="edge">
<title>TableComponent&#45;&gt;AppModule</title>
<path fill="none" stroke="black" d="M417,-122.11C417,-141.34 417,-169 417,-169 417,-169 797.19,-169 797.19,-169"/>
<polygon fill="black" stroke="black" points="797.19,-172.5 807.19,-169 797.19,-165.5 797.19,-172.5"/>
</g>
<!-- TicketTitleEditComponent -->
<g id="node10" class="node">
<title>TicketTitleEditComponent</title>
<polygon fill="#ffffb3" stroke="black" points="342.37,-122 175.63,-122 175.63,-86 342.37,-86 342.37,-122"/>
<text text-anchor="middle" x="259" y="-99.8" font-family="Times,serif" font-size="14.00">TicketTitleEditComponent</text>
</g>
<!-- TicketTitleEditComponent&#45;&gt;AppModule -->
<g id="edge10" class="edge">
<title>TicketTitleEditComponent&#45;&gt;AppModule</title>
<path fill="none" stroke="black" d="M259,-122.28C259,-143.32 259,-175 259,-175 259,-175 797.04,-175 797.04,-175"/>
<polygon fill="black" stroke="black" points="797.04,-178.5 807.04,-175 797.04,-171.5 797.04,-178.5"/>
</g>
<!-- AppComponent  -->
<g id="node13" class="node">
<title>AppComponent </title>
<polygon fill="#80b1d3" stroke="black" points="903.44,-252 794.56,-252 794.56,-216 903.44,-216 903.44,-252"/>
<text text-anchor="middle" x="849" y="-229.8" font-family="Times,serif" font-size="14.00">AppComponent </text>
</g>
<!-- AppModule&#45;&gt;AppComponent  -->
<g id="edge12" class="edge">
<title>AppModule&#45;&gt;AppComponent </title>
<path fill="none" stroke="black" stroke-dasharray="1,5" d="M849,-187.11C849,-187.11 849,-205.99 849,-205.99"/>
<polygon fill="black" stroke="black" points="845.5,-205.99 849,-215.99 852.5,-205.99 845.5,-205.99"/>
</g>
<!-- AppRoutingModule -->
<g id="node12" class="node">
<title>AppRoutingModule</title>
<polygon fill="#8dd3c7" stroke="black" points="152.27,-122 149.27,-126 128.27,-126 125.27,-122 23.73,-122 23.73,-86 152.27,-86 152.27,-122"/>
<text text-anchor="middle" x="88" y="-99.8" font-family="Times,serif" font-size="14.00">AppRoutingModule</text>
</g>
<!-- AppRoutingModule&#45;&gt;AppModule -->
<g id="edge11" class="edge">
<title>AppRoutingModule&#45;&gt;AppModule</title>
<path fill="none" stroke="black" d="M88,-122.25C88,-145.02 88,-181 88,-181 88,-181 797.27,-181 797.27,-181"/>
<polygon fill="black" stroke="black" points="797.27,-184.5 807.27,-181 797.27,-177.5 797.27,-184.5"/>
</g>
</g>
</svg>
